<?xml version="1.0" standalone="yes"?>
<svg xmlns="http://www.w3.org/2000/svg" xmlns:xlink="http://www.w3.org/1999/xlink" xmlns:svg="http://www.w3.org/2000/svg" xmlns:dc="http://purl.org/dc/elements/1.1/" xmlns:cc="http://web.resource.org/cc/" xmlns:rdf="http://www.w3.org/1999/02/22-rdf-syntax-ns#" width="133" height="36">
<path style="fill:#ddf3f1; stroke:none;" d="M0 0L0 2L2 0L0 0z"/>
<path style="fill:#19af9b; stroke:none;" d="M2.3179 1.02778C-0.270929 2.75529 0.0195297 6.27482 0.000771605 9C-0.0376653 14.5841 -2.90172 32.7552 3.14815 35.3966C10.5078 38.6099 24.002 36 32 36L100 36C107.467 36 124.393 39.1691 130.682 34.9722C133.271 33.2447 132.98 29.7252 132.999 27C133.038 21.4159 135.902 3.24484 129.852 0.603397C122.492 -2.60988 108.998 0 101 0L33 0C25.5333 0 8.60723 -3.16907 2.3179 1.02778z"/>
<path style="fill:#ffffff; stroke:none;" d="M131 0L133 2L133 0L131 0z"/>
<path style="fill:#afddd5; stroke:none;" d="M28 13L28 23L29 23L28 13z"/>
<path style="fill:#f5fbf9; stroke:none;" d="M29 13L29 23L30 23L30 19L36 23C34.7332 17.6968 35.4016 13.4988 29 13z"/>
<path style="fill:#83cbc1; stroke:none;" d="M37 13L37 23L38 23L37 13z"/>
<path style="fill:#ffffff; stroke:none;" d="M38 13L38 23L46 23L46 22L39 22L39 18L44 18L44 17L39 17L39 14L44 14L38 13z"/>
<path style="fill:#dff1ed; stroke:none;" d="M48 13L45 22L52 23L53 23L50 13L48 13z"/>
<path style="fill:#ffffff; stroke:none;" d="M55 13L55 23C63.9074 22.7075 63.9074 13.2925 55 13z"/>
<path style="fill:#afddd5; stroke:none;" d="M67 13L67 23L68 23L67 13z"/>
<path style="fill:#dff1ed; stroke:none;" d="M68 13L68 23L69 23L69 18L70 18L71 23L75 17L76 17L76 23L77 23L77 13L73 20L72 20L68 13z"/>
<path style="fill:#a1d7cd; stroke:none;" d="M77 13L77 23L78 23L77 13z"/>
<path style="fill:#dff1ed; stroke:none;" d="M81.5988 14.0471C78.1962 16.5857 80.9358 25.2845 85.4012 21.9529C88.8038 19.4143 86.0641 10.7155 81.5988 14.0471z"/>
<path style="fill:#afddd5; stroke:none;" d="M89 13L89 23L90 23L89 13z"/>
<path style="fill:#f5fbf9; stroke:none;" d="M90 13L90 23L91 23L91 19L97 23C95.7332 17.6969 96.4016 13.4988 90 13z"/>
<path style="fill:#83cbc1; stroke:none;" d="M98 13L98 23L99 23L98 13z"/>
<path style="fill:#ffffff; stroke:none;" d="M99 13L99 23L106 23L106 22L100 22L100 18L105 18L105 17L100 17L100 14L105 14L99 13z"/>
<path style="fill:#19af9b; stroke:none;" d="M30 14L30 18L34 17L34 15L30 14z"/>
<path style="fill:#a1d7cd; stroke:none;" d="M35 14L35 17L36 17L35 14M56 14L56 22L57 22L56 14z"/>
<path style="fill:#19af9b; stroke:none;" d="M57 14L57 22C61.1969 19.6869 61.7461 15.9096 57 14M82 14L82 22C86.7735 20.4155 86.7735 15.5845 82 14M91 14L91 18L95 17L95 15L91 14z"/>
<path style="fill:#a1d7cd; stroke:none;" d="M96 14L96 17L97 17L96 14z"/>
<path style="fill:#afddd5; stroke:none;" d="M79 15L79 21L80 21L79 15M87 15L87 21L88 21L87 15z"/>
<path style="fill:#83cbc1; stroke:none;" d="M48.6667 16.3333L49.3333 16.6667L48.6667 16.3333z"/>
<path style="fill:#a1d7cd; stroke:none;" d="M62 16L62 20L63 20L62 16z"/>
<path style="fill:#19af9b; stroke:none;" d="M48 17L48 19L50 19L50 17L48 17z"/>
<path style="fill:#61c1b3; stroke:none;" d="M39 18L39 22L40 22L39 18M100 18L100 22L101 22L100 18z"/>
<path style="fill:#a1d7cd; stroke:none;" d="M35 19L35 22L36 22L35 19M96 19L96 22L97 22L96 19z"/>
<path style="fill:#ffffff; stroke:none;" d="M0 34L0 36L2 36L0 34M132 34L131 36L133 36L132 34z"/>
</svg>
